<svg xmlns="http://www.w3.org/2000/svg" version="1.1" xmlns:xlink="http://www.w3.org/1999/xlink" width="200" height="200"><svg xmlns="http://www.w3.org/2000/svg" version="1.1" xmlns:xlink="http://www.w3.org/1999/xlink" viewBox="0 0 200 200"><rect width="200" height="200" fill="url('#gradient')"></rect><defs><linearGradient id="SvgjsLinearGradient1001" gradientTransform="rotate(45 0.5 0.5)"><stop offset="0%" stop-color="#000000"></stop><stop offset="100%" stop-color="#000000"></stop></linearGradient></defs><g><g fill="#73b5f6" transform="matrix(7.337579617834395,0,0,7.337579617834395,2.450867405362942,151.4381502995825)" stroke="#0e5278" stroke-width="1.2"><path d="M8.80-14.22L12.23-14.22L12.23-4.91Q12.23-3.33 11.55-2.17Q10.88-1.02 9.62-0.41Q8.36 0.20 6.64 0.20L6.64 0.20Q4.04 0.20 2.55-1.15Q1.05-2.50 1.03-4.84L1.03-4.84L1.03-14.22L4.47-14.22L4.47-4.78Q4.53-2.44 6.64-2.44L6.64-2.44Q7.71-2.44 8.25-3.03Q8.80-3.61 8.80-4.93L8.80-4.93L8.80-14.22ZM19.98-4.82L17.79-4.82L17.79 0L14.37 0L14.37-14.22L20.04-14.22Q21.67-14.22 22.92-13.62Q24.18-13.02 24.87-11.91Q25.56-10.80 25.56-9.39L25.56-9.39Q25.56-7.31 24.07-6.07Q22.58-4.82 19.98-4.82L19.98-4.82ZM17.79-11.57L17.79-7.47L20.04-7.47Q21.04-7.47 21.56-7.97Q22.08-8.47 22.08-9.38L22.08-9.38Q22.08-10.37 21.54-10.97Q21.01-11.56 20.08-11.57L20.08-11.57L17.79-11.57Z"></path></g></g></svg><style>@media (prefers-color-scheme: light) { :root { filter: none; } }
@media (prefers-color-scheme: dark) { :root { filter: none; } }
</style></svg>